<svg width="1440" height="560" viewBox="0 0 1440 560" fill="none" xmlns="http://www.w3.org/2000/svg">
<g clip-path="url(#clip0_11_72)">
<mask id="mask0_11_72" style="mask-type:luminance" maskUnits="userSpaceOnUse" x="0" y="0" width="1440" height="560">
<path d="M1440 0H0V560H1440V0Z" fill="white"/>
</mask>
<g mask="url(#mask0_11_72)">
<path d="M51.85 222.99V172.99L8.55 147.99L-34.75 172.99V222.99L8.55 247.99M51.85 222.99L8.55 247.99M51.85 222.99L95.16 247.99V297.99L51.85 322.99L8.55 297.99V247.99M311.67 522.99V472.99L268.37 447.99L225.06 472.99V522.99L268.37 547.99M311.67 522.99L268.37 547.99M311.67 522.99L354.97 547.99V597.99L311.67 622.99L268.37 597.99V547.99M528.18 147.99V97.99L484.88 72.99L441.58 97.99V147.99L484.88 172.99M528.18 147.99L484.88 172.99M528.18 147.99L571.48 172.99V222.99L528.18 247.99L484.88 222.99V172.99M744.69 522.99V472.99L701.39 447.99L658.09 472.99V522.99L701.39 547.99M744.69 522.99L701.39 547.99M744.69 522.99L788 547.99M701.39 547.99V597.99L744.69 622.99L788 597.99M788 547.99V597.99M788 547.99L831.3 522.99L874.6 547.99V597.99L831.3 622.99L788 597.99M917.9 72.99V22.99L874.6 -2.01001L831.3 22.99V72.99L874.6 97.99M917.9 72.99L874.6 97.99M917.9 72.99L961.21 97.99V147.99L917.9 172.99L874.6 147.99V97.99M1047.81 397.99L1004.51 372.99L961.21 397.99V447.99M1047.81 397.99V447.99M1047.81 397.99L1091.11 372.99L1134.41 397.99V447.99M1047.81 447.99L1004.51 472.99M1047.81 447.99L1091.11 472.99M1004.51 472.99L961.21 447.99M1004.51 472.99V522.99L961.21 547.99L917.9 522.99V472.99L961.21 447.99M1134.41 447.99L1091.11 472.99M1134.41 447.99L1177.72 472.99V522.99L1134.41 547.99L1091.11 522.99V472.99M181.76 -2.01001L225.06 22.99V72.99L181.76 97.99L138.46 72.99V22.99L181.76 -2.01001ZM571.48 522.99L614.78 547.99V597.99L571.48 622.99L528.18 597.99V547.99L571.48 522.99ZM658.09 72.99L701.39 97.99V147.99L658.09 172.99L614.78 147.99V97.99L658.09 72.99ZM614.78 297.99L658.09 322.99V372.99L614.78 397.99L571.48 372.99V322.99L614.78 297.99ZM1091.11 72.99L1134.41 97.99V147.99L1091.11 172.99L1047.81 147.99V97.99L1091.11 72.99ZM1221.02 -2.01001L1264.32 22.99V72.99L1221.02 97.99L1177.72 72.99V22.99L1221.02 -2.01001ZM1350.93 372.99L1394.23 397.99V447.99L1350.93 472.99L1307.63 447.99V397.99L1350.93 372.99Z" stroke="#4441EB" stroke-opacity="0.31" stroke-width="2"/>
</g>
</g>
<defs>
<clipPath id="clip0_11_72">
<rect width="1440" height="560" fill="white"/>
</clipPath>
</defs>
</svg>
