<svg width="500" height="500" viewBox="0 0 500 500" fill="none" xmlns="http://www.w3.org/2000/svg">
<path fill-rule="evenodd" clip-rule="evenodd" d="M122.217 176.064L250.5 102L379 176.189V324.568L250.5 398.758L250 398.469V441.361L416 345.52L416 154L416 153.84L415.862 153.92L250 58.1598L84 154L122.217 176.064ZM229 386.345V429.236L84 345.52V173.284L122 195.223L122 324.568L229 386.345Z" fill="white"/>
<path d="M177.208 267L164.92 233.4H173.752L186.616 267H177.208ZM151.336 267L164.2 233.4H173.032L160.744 267H151.336ZM157.384 261.624V253.8H180.616V261.624H157.384ZM195.912 267L207.72 233.4H217.32L204.504 267H195.912ZM194.904 267L181.992 233.4H191.592L203.496 267H194.904ZM238.567 267L226.279 233.4H235.111L247.975 267H238.567ZM212.695 267L225.559 233.4H234.391L222.103 267H212.695ZM218.743 261.624V253.8H241.975V261.624H218.743ZM251.193 267V233.4H260.553L273.656 251.88V233.4H282.537V267H273.656L260.073 247.848V267H251.193ZM304.302 267.576C300.846 267.576 297.79 266.84 295.134 265.368C292.478 263.864 290.398 261.816 288.894 259.224C287.39 256.6 286.638 253.592 286.638 250.2C286.638 246.808 287.39 243.816 288.894 241.224C290.398 238.6 292.478 236.552 295.134 235.08C297.79 233.576 300.846 232.824 304.302 232.824C306.574 232.824 308.574 233.144 310.302 233.784C312.062 234.424 313.582 235.304 314.862 236.424C316.142 237.512 317.23 238.776 318.126 240.216L310.734 244.584C310.286 243.88 309.71 243.256 309.006 242.712C308.334 242.168 307.582 241.752 306.75 241.464C305.95 241.144 305.134 240.984 304.302 240.984C302.638 240.984 301.166 241.384 299.886 242.184C298.606 242.952 297.598 244.024 296.862 245.4C296.126 246.776 295.758 248.376 295.758 250.2C295.758 251.992 296.11 253.592 296.814 255C297.518 256.408 298.526 257.512 299.838 258.312C301.182 259.112 302.75 259.512 304.542 259.512C305.822 259.512 306.958 259.288 307.95 258.84C308.942 258.36 309.726 257.704 310.302 256.872C310.878 256.008 311.166 255.016 311.166 253.896L319.614 252.312C319.614 255.704 318.958 258.536 317.646 260.808C316.334 263.08 314.526 264.776 312.222 265.896C309.95 267.016 307.31 267.576 304.302 267.576ZM303.678 254.904V248.184H319.614V253.128L314.574 254.904H303.678ZM323.193 267V233.4H345.705V241.56H332.073V246.216H343.113V254.136H332.073V258.84H346.041V267H323.193Z" fill="white"/>
</svg>
