<svg width="1440" height="560" viewBox="0 0 1440 560" fill="none" xmlns="http://www.w3.org/2000/svg">
<g clip-path="url(#clip0_15_139)">
<mask id="mask0_15_139" style="mask-type:luminance" maskUnits="userSpaceOnUse" x="0" y="0" width="1440" height="560">
<path d="M1440 0H0V560H1440V0Z" fill="white"/>
</mask>
<g mask="url(#mask0_15_139)">
<path d="M-528.459 197C-432.46 224.8 -240.46 349.4 -48.4595 336C143.54 322.6 239.54 134.8 431.541 130C623.54 125.2 719.54 305.6 911.541 312C1103.54 318.4 1285.85 150.2 1391.54 162C1497.23 173.8 1430.31 329.2 1440 371" stroke="#4541EB" stroke-opacity="0.3" stroke-width="2"/>
<path d="M-823.238 56C-727.24 130.2 -535.24 425.8 -343.238 427C-151.24 428.2 -55.24 65.2 136.762 62C328.76 58.8 424.76 411 616.762 411C808.76 411 932.11 58.6 1096.76 62C1261.41 65.4 1371.35 354.8 1440 428" stroke="#4541EB" stroke-opacity="0.3" stroke-width="2"/>
<path d="M-202.177 165C-106.18 230.6 85.82 481.8 277.823 493C469.82 504.2 565.82 236.4 757.823 221C949.82 205.6 1045.82 447.6 1237.82 416C1429.82 384.4 1677.39 76 1717.82 63C1758.26 50 1495.56 293.4 1440 351" stroke="#4541EB" stroke-opacity="0.3" stroke-width="2"/>
<path d="M-242.584 375C-146.58 328.6 45.42 143.8 237.416 143C429.42 142.2 525.42 374.4 717.416 371C909.42 367.6 1005.42 115.2 1197.42 126C1389.42 136.8 1628.9 411.2 1677.42 425C1725.93 438.8 1487.48 241 1440 195" stroke="#4541EB" stroke-opacity="0.3" stroke-width="2"/>
</g>
</g>
<defs>
<clipPath id="clip0_15_139">
<rect width="1440" height="560" fill="white"/>
</clipPath>
</defs>
</svg>
